<svg width="42" height="39" viewBox="0 0 42 39" fill="none" xmlns="http://www.w3.org/2000/svg">
<path d="M34.1394 0.803527C36.7845 2.41541 37.6877 6.04216 36.1393 8.79579L23.3656 31.2951C21.8172 34.0486 18.3336 34.989 15.6885 33.3771C13.0433 31.7652 12.1401 28.1383 13.6885 25.3847L26.4623 2.88555C28.0105 0.0647459 31.4299 -0.808357 34.1394 0.803527Z" fill="#01274E"/>
<path d="M3.6794 34.8787C7.32447 39.4615 15.1448 39.528 22.8989 35.6758C16.8017 38.2661 10.9032 38.0003 8.05348 34.4137C4.20959 29.5653 7.52328 20.4663 15.5424 14.0237C23.5617 7.58118 33.1713 6.31925 37.0815 11.1677C38.8709 13.4259 39.1359 16.5475 38.0756 19.9348C39.9312 15.352 39.8651 10.902 37.4129 7.84684C32.8399 2.06854 21.5072 3.4633 12.2288 10.9685C2.88411 18.3407 -0.959779 29.1004 3.6794 34.8787Z" fill="#0154AA"/>
<path d="M37.6617 21.3668C37.6617 21.3668 40.3675 17.8283 41.0854 14.5337C41.0854 14.5337 40.3675 15.8149 39.2079 16.3641C39.2079 16.3641 38.0483 20.6348 37.6617 21.3668Z" fill="#0154AA"/>
<path d="M4.85018 16.2407C6.70138 13.8339 8.96392 11.4938 11.5693 9.48817C12.2549 8.9533 13.0091 8.41846 13.6947 7.95047L11.1579 3.73853C9.44389 0.930577 5.81006 0.0614539 2.93044 1.66599C0.11937 3.27053 -0.840511 6.88076 0.804997 9.62187L4.85018 16.2407Z" fill="#0154AA"/>
<path d="M13.6448 32.1378C14.154 33.0137 14.7903 33.6873 15.6176 34.2261C18.2266 35.8428 21.663 34.9671 23.1903 32.1378L23.3176 31.8686L27.3904 24.5263C26.945 25.2671 24.5904 28.3658 22.4266 24.9304L18.354 17.6554L17.5903 16.2409C17.463 16.3757 17.3358 16.443 17.2084 16.5776C13.8994 19.4069 11.4175 22.9095 10.272 26.1428L13.6448 32.1378Z" fill="#0154AA"/>
</svg>
