<svg width="13" height="18" viewBox="0 0 13 18" fill="none" xmlns="http://www.w3.org/2000/svg">
<path d="M0.75 3.6648C0.75 2.64462 0.75 2.13453 0.957619 1.74468C1.14023 1.40191 1.43161 1.12323 1.79 0.948571C2.19762 0.75 2.73095 0.75 3.79762 0.75H9.13095C10.1976 0.75 10.731 0.75 11.1386 0.948571C11.497 1.12323 11.7883 1.40191 11.971 1.74468C12.1786 2.13453 12.1786 2.64462 12.1786 3.6648V15.784C12.1786 16.2267 12.1786 16.448 12.0824 16.5692C12.0408 16.6219 11.9878 16.6653 11.9269 16.6964C11.8661 16.7276 11.7989 16.7457 11.73 16.7495C11.571 16.7586 11.3786 16.6357 10.9938 16.3906L6.46429 13.5023L1.93476 16.3897C1.55 16.6357 1.35762 16.7586 1.19762 16.7495C1.12889 16.7456 1.06188 16.7274 1.00121 16.6962C0.940541 16.6651 0.887652 16.6218 0.84619 16.5692C0.75 16.448 0.75 16.2267 0.75 15.784V3.6648Z" stroke="#AAAAAA" stroke-width="1.5" stroke-linecap="round" stroke-linejoin="round"/>
</svg>
